<svg width="176" height="64" fill="none" xmlns="http://www.w3.org/2000/svg"><path d="M174.087.12L1.913 0C1.406 0 .919.21.56.586.202.96 0 1.47 0 2v60c0 .53.202 1.04.56 1.414.36.375.846.586 1.353.586h172.174c.507 0 .994-.21 1.353-.586A2.05 2.05 0 00176 62V2.11a2.047 2.047 0 00-.564-1.408 1.87 1.87 0 00-1.349-.582zM57.391 60H3.826V4.11h53.565V60zm114.783 0H61.217V4.11h110.957V60z" fill="#FFC807"/><path d="M12.435 20.81l12.817 13.26L25.233 52h3.568V32.24L14.93 18.21l-2.496 2.6zm36.348 0l-2.497-2.6-13.879 14.03V52h3.577l-.019-17.93 12.818-13.26zM41.188 13L30.599 23.78 20.02 13l-2.525 2.6 13.104 13.35L43.713 15.6 41.188 13zm32.914 29.38a2.754 2.754 0 01-1.114-.178 2.848 2.848 0 01-.962-.612 3.024 3.024 0 01-.616-1.04 3.125 3.125 0 01-.168-1.21V24.8c-.023-.41.035-.82.17-1.205.135-.385.344-.738.614-1.035.276-.272.603-.483.96-.619a2.684 2.684 0 011.116-.171h2.955c.38-.023.76.035 1.116.171.357.136.684.347.96.619.269.298.476.65.61 1.036.132.385.189.795.165 1.204V29h-2.793v-4.09c0-.15-.096-.22-.287-.22H74.33c-.181 0-.277.07-.277.22v14.33c0 .16.096.23.277.23h2.497c.191 0 .287-.07.287-.23v-4.06h2.793v4.16c.025.41-.03.822-.164 1.21a3.022 3.022 0 01-.611 1.04 2.848 2.848 0 01-.962.612 2.754 2.754 0 01-1.114.178h-2.955zm14.042 0l2.773-20.61h4.056l2.784 20.61H95.05l-.69-5.15h-2.869l-.621 5.15h-2.727zm4.782-18.23l-.717 6.94-.297 3.25h2.038l-.316-3.25-.708-6.94zm12.808.65c-.023-.41.035-.82.17-1.205a3.03 3.03 0 01.614-1.035c.275-.272.6-.482.955-.618a2.663 2.663 0 011.111-.172h2.985a2.68 2.68 0 011.11.173c.355.136.68.346.956.617.268.298.476.65.609 1.036.133.385.19.795.166 1.204V29h-2.803v-4.09c0-.15-.096-.22-.287-.22h-2.497c-.191 0-.286.07-.286.22v3.27c-.008.341.062.68.204.987.141.307.349.575.609.783.282.23.583.433.899.61l.526.28.545.29a6.65 6.65 0 012.104 1.62 5.004 5.004 0 01.957 3.21v3.38c.025.41-.031.822-.164 1.21a3.018 3.018 0 01-.611 1.04 2.85 2.85 0 01-.958.61 2.752 2.752 0 01-1.108.18h-2.994a2.752 2.752 0 01-1.113-.178 2.847 2.847 0 01-.963-.612 3.05 3.05 0 01-.611-1.04 3.118 3.118 0 01-.163-1.21v-4.16h2.802v4.06c0 .16.096.23.287.23h2.506c.192 0 .287-.07.287-.23V36a2.07 2.07 0 00-.21-.91 1.974 1.974 0 00-.584-.71 6.053 6.053 0 00-.908-.61l-.536-.28-.545-.31a7.249 7.249 0 01-2.114-1.68 5.244 5.244 0 01-.957-3.28l.01-3.42zm17.849 17.58V21.77h2.869v20.61h-2.869zm14.606-20.61l2.869 10.2.584 2.58-.182-3.37v-9.41h2.707v20.61h-2.602l-2.869-10.2-.584-2.84.182 3.63v9.41h-2.707V21.77h2.602zm21.101 0c.379-.023.758.035 1.115.171s.684.347.96.619a3 3 0 01.614 1.035c.135.385.193.795.171 1.205v14.54c.024.411-.034.823-.169 1.21a3.017 3.017 0 01-.616 1.04 2.851 2.851 0 01-.962.612 2.755 2.755 0 01-1.113.178h-2.975c-.384.03-.77-.027-1.131-.168a2.677 2.677 0 01-.962-.644 2.822 2.822 0 01-.617-1.006 2.929 2.929 0 01-.16-1.182V24.8c-.021-.41.038-.82.175-1.206.136-.386.347-.737.619-1.034.275-.271.6-.48.956-.617a2.68 2.68 0 011.11-.173h2.985zm-2.727 2.92c-.191 0-.286.07-.286.22v14.33c0 .16.095.23.286.23h2.497c.182 0 .277-.07.277-.23V24.91c0-.15-.095-.22-.277-.22h-2.497z" fill="#FFC807"/></svg>