<svg width="128" height="80" fill="none" xmlns="http://www.w3.org/2000/svg"><path fill-rule="evenodd" clip-rule="evenodd" d="M85.877 5.455h-41.82v5.155H29.514v24.18c0 9.345 9.817 17.035 19.45 17.834 3.162 3.6 8.724 6.215 13.675 7.33v6.32c-4.734 1.546-13.19 5.175-13.675 9.13h32.489c-.49-3.954-9.807-7.59-14.55-9.13v-6.32c4.969-1.114 10.78-3.73 13.948-7.33 9.628-.8 19.011-8.49 19.011-17.835V10.61H85.877V5.456zM33.981 15.19h9.736v20.83c0 4.11.998 8.02 2.753 11.54-7.284-2.466-12.489-8.816-12.489-16.246V15.19zm38.137 25.404l-7.266-4.255-7.276 4.255 1.389-9-5.883-6.37 8.127-1.314 3.643-8.18 3.633 8.18 8.127 1.314-5.883 6.37 1.389 9zm10.8 7.63c1.764-3.68 2.776-7.75 2.776-12.054V15.323h9.76v15.93c0 7.765-5.228 14.396-12.536 16.97z" fill="#fff"/></svg>