<svg width="240" height="80" fill="none" xmlns="http://www.w3.org/2000/svg"><g clip-path="url(#clip0)" fill="#fff"><path d="M117.683 18.855c0-.94.283-1.669.836-2.2.541-.52 1.275-.78 2.215-.78h3.192c.927 0 1.661.26 2.201.78.554.531.837 1.273.837 2.2v4.092h-2.999v-3.993c0-.148-.103-.222-.309-.222h-2.665c-.206 0-.309.074-.309.222v3.227c0 .704.283 1.286.863 1.73.244.186.566.384.965.606.142.062.322.161.554.285l.579.284c1.03.507 1.776 1.039 2.24 1.595.708.816 1.055 1.867 1.055 3.165v3.325c0 .94-.283 1.682-.836 2.201-.541.52-1.275.779-2.202.779h-3.205c-.94 0-1.674-.26-2.214-.779-.554-.532-.837-1.261-.837-2.2v-4.093h2.999v3.993c0 .149.103.235.309.235h2.678c.206 0 .309-.074.309-.235v-3.226c0-.63-.283-1.162-.85-1.595a7.068 7.068 0 00-.965-.593c-.129-.062-.322-.161-.567-.285l-.579-.309c-1.017-.531-1.776-1.075-2.253-1.644-.695-.84-1.042-1.916-1.042-3.227v-3.338zm22.192 8.578v8.704h-2.999V15.86h6.243c.94 0 1.687.26 2.227.792.554.531.824 1.26.824 2.188v3.622c0 1.62-.386 2.844-1.158 3.647-.837.878-2.15 1.31-3.965 1.31h-1.172v.013zm0-2.856h1.172c.836 0 1.39-.148 1.686-.457.296-.285.438-.84.438-1.644v-3.524c0-.148-.103-.222-.309-.222h-2.987v5.847zm21.807-8.716c.94 0 1.673.26 2.214.78.554.531.837 1.273.837 2.2v14.304c0 .94-.283 1.681-.837 2.2-.541.52-1.274.78-2.214.78h-3.193c-.926 0-1.673-.26-2.227-.792-.553-.52-.823-1.249-.823-2.188V18.853c0-.94.283-1.669.849-2.2.541-.52 1.275-.78 2.201-.78h3.193v-.011zm-2.922 2.869c-.206 0-.309.074-.309.222v14.106c0 .149.103.235.309.235h2.664c.206 0 .309-.074.309-.235V18.952c0-.148-.103-.222-.309-.222h-2.664zm22.128-2.869c.94 0 1.686.26 2.227.792.554.531.824 1.26.824 2.188v3.326c0 1.15-.193 2.04-.579 2.695-.412.692-1.056 1.063-1.893 1.137.85.062 1.481.445 1.893 1.137.386.643.579 1.546.579 2.695v6.318h-2.999v-6.602c0-.803-.142-1.36-.438-1.644-.296-.31-.85-.457-1.686-.457h-1.172v8.703h-2.999V15.874h6.243v-.013zm-3.231 8.716h1.171c.837 0 1.391-.148 1.687-.457.296-.285.437-.84.437-1.644v-3.524c0-.148-.103-.222-.309-.222h-2.986v5.847zm22.965-5.847h-3.141v17.407h-2.987V18.73h-3.166v-2.87h9.294v2.869zm-96.288 25.133h6.217c.94 0 1.674.26 2.214.78.554.53.837 1.273.837 2.2v3.325c0 1.15-.193 2.04-.579 2.696-.399.692-1.017 1.063-1.867 1.137.85.062 1.481.445 1.892 1.137.387.643.58 1.546.58 2.695v1.336c-.013 1.62-.412 2.843-1.172 3.659-.836.878-2.162 1.31-3.977 1.31h-4.145V43.863zm6.269 3.091c0-.148-.103-.222-.309-.222h-2.974l.013 5.835h1.171c.811 0 1.365-.148 1.661-.458.296-.284.438-.84.438-1.644v-3.51zm-3.257 14.329h1.145c.837 0 1.404-.149 1.7-.458.283-.284.437-.84.45-1.656v-1.632c0-.804-.141-1.36-.437-1.645-.297-.309-.85-.457-1.687-.457h-1.171v5.848zm24.175 2.855h-8.033V43.863h8.033v2.869h-5.033v5.835h5.033v2.856h-5.033v5.847h5.033v2.868zm16.709-17.406h-3.141v17.406h-2.987V46.732h-3.166v-2.869h9.294v2.869zm16.979 0h-3.141v17.406h-2.986V46.732h-3.167v-2.869h9.294v2.869zm7.518 17.406V43.863h3.012v20.275h-3.012zm15.614-20.275l3.09 10.039.618 2.534-.193-3.313v-9.26h2.896v20.275h-2.793L188.882 54.1l-.618-2.794.193 3.573v9.26h-2.896V43.862h2.78zm25.617 20.276h-4.171c-1.815 0-3.141-.433-3.964-1.31-.773-.816-1.159-2.04-1.159-3.66V46.856c0-.94.283-1.67.85-2.201.54-.52 1.274-.779 2.201-.779h3.192c.94 0 1.687.26 2.227.791.554.532.824 1.261.824 2.189v4.092h-2.999v-3.993c0-.149-.103-.223-.309-.223h-2.665c-.206 0-.309.074-.309.223v12.214c0 .816.142 1.372.438 1.681.283.285.837.433 1.673.433h1.172v-5.848h-1.751V52.58h4.75v11.559zM78.305 4.797v70.406H4.995V4.797h73.31zM83.299 0H2.575C1.158 0 0 1.113 0 2.473v75.054C0 78.887 1.158 80 2.574 80H83.3V0z"/><path d="M234.992 4.797v70.406H83.299V4.797h151.693zM78.305 0v80h159.12c1.416 0 2.575-1.113 2.575-2.473V2.473C240 1.113 238.841 0 237.425 0H78.305zM18.447 26.086l16.36 15.787-.025 21.338h4.557V39.685l-17.7-16.702-3.192 3.103zm46.38 0l-3.18-3.103-17.7 16.702V63.21h4.557l-.025-21.338 16.348-15.787zm-9.693-9.297L41.63 29.62 28.14 16.79l-3.232 3.103L41.63 35.778l16.735-15.886-3.231-3.103z"/></g><defs><clipPath id="clip0"><path fill="#fff" d="M0 0h240v80H0z"/></clipPath></defs></svg>