<svg width="80" height="80" fill="none" xmlns="http://www.w3.org/2000/svg"><path d="M44.947 51.947c-.272-.297-.616-.52-.97-.705-.774-.403-1.62-.648-2.46-.868v6.505c1.364-.154 2.928-.648 3.644-1.92.341-.608.41-1.355.27-2.031a2.043 2.043 0 00-.484-.98zm.206 3.024l.008-.012-.008.012zM35.126 41.547a2.453 2.453 0 00-.422 1.144c-.04.414-.018.875.14 1.264.15.372.463.646.787.867.363.247.763.44 1.17.603.341.138.725.27 1.14.396v-5.887c-1.047.224-2.19.7-2.815 1.613z" fill="#fff"/><path d="M45.188 54.91l-.027.048c.01-.02.019-.033.027-.047zm.034-.06c.003-.005.003-.005 0 0z" fill="#fff"/><path d="M43.81 19.46c5.532-4.647 9.23-15.117 6.954-15.575-3.023-.609-9.587 2.06-12.76 2.53-4.5.544-9.401-4.88-12.152-1.856-2.237 2.457 1.604 11.395 7.612 15.29-17.926 8.81-43.123 53.04.834 56.249 60.822 4.44 30.366-48.052 9.512-56.637zm5.223 34.882c-.187 1.724-1.1 3.284-2.467 4.343-1.442 1.117-3.25 1.637-5.048 1.783v1.905a1.8 1.8 0 01-.605 1.34 1.804 1.804 0 01-1.931.286 1.805 1.805 0 01-1.042-1.626v-2.082a11.719 11.719 0 01-.916-.211c-1.68-.462-3.238-1.362-4.377-2.693a7.888 7.888 0 01-1.572-2.876c-.059-.198-.12-.4-.14-.606a1.79 1.79 0 01.194-1.008 1.805 1.805 0 011.744-.953c.702.062 1.318.55 1.54 1.219.067.206.113.417.19.621.076.203.167.4.275.587.212.37.479.71.785 1.006.633.609 1.438 1.005 2.277 1.24V49.54c-1.641-.425-3.335-.974-4.69-2.028-.66-.512-1.218-1.149-1.584-1.902-.387-.795-.547-1.681-.553-2.561a6.104 6.104 0 01.536-2.593 6.323 6.323 0 011.468-2.014c1.317-1.213 3.068-1.89 4.823-2.138v-1.978a1.8 1.8 0 01.605-1.34 1.804 1.804 0 011.931-.285 1.803 1.803 0 011.042 1.625v1.967c.234.03.467.065.7.107 1.723.312 3.41 1.024 4.67 2.267a6.827 6.827 0 011.683 2.71c.068.207.136.42.168.637a1.79 1.79 0 01-.15 1.02 1.806 1.806 0 01-1.698 1.03 1.805 1.805 0 01-1.592-1.145c-.075-.196-.112-.403-.188-.598a3.152 3.152 0 00-.293-.563 3.412 3.412 0 00-.845-.886c-.717-.53-1.587-.806-2.456-.96v6.774c1.033.247 2.067.517 3.056.907 1.496.59 2.913 1.494 3.73 2.92l.004.007c.25.438.13.23.005.01.65 1.145.863 2.513.721 3.813zm-3.898.663l-.027.047.027-.047z" fill="#fff"/></svg>