<svg width="176" height="64" fill="none" xmlns="http://www.w3.org/2000/svg"><path d="M82.05 32.77h1.081a4.524 4.524 0 001.969-.253 4.683 4.683 0 001.695-1.077 5.448 5.448 0 001.061-3.67v-3.64a3.124 3.124 0 00-.162-1.185 3.026 3.026 0 00-.593-1.025 2.767 2.767 0 00-.95-.62 2.672 2.672 0 00-1.107-.18h-5.739v20.42h2.774l-.029-8.77zm0-8.76h2.755c.191 0 .287.07.287.22v3.54c.066.588-.08 1.18-.411 1.66a2.035 2.035 0 01-.73.394 1.96 1.96 0 01-.82.066h-1.08v-5.88zm17.19 17.53h2.945c.375.022.75-.037 1.102-.173.352-.136.674-.346.945-.617a3.01 3.01 0 00.6-1.028 3.11 3.11 0 00.165-1.192v-14.4a3.116 3.116 0 00-.163-1.197 3.013 3.013 0 00-.602-1.033 2.75 2.75 0 00-.947-.609 2.663 2.663 0 00-1.1-.171h-2.946a2.655 2.655 0 00-1.095.172c-.35.134-.67.341-.942.608-.27.296-.478.647-.613 1.03a3.125 3.125 0 00-.172 1.2v14.4c-.02.403.036.807.167 1.187.132.38.335.727.599 1.023.273.271.596.482.95.62a2.7 2.7 0 001.106.18zm0-17.31c0-.15.095-.22.286-.22h2.458c.192 0 .287.07.287.22v14.2c0 .15-.095.23-.287.23h-2.506c-.191 0-.287-.08-.287-.23l.048-14.2zm17.695 8.54h1.062a1.98 1.98 0 01.824.064c.268.08.518.214.735.396.323.484.465 1.074.401 1.66v6.65h2.774v-6.36a5.748 5.748 0 00-.535-2.71 1.988 1.988 0 00-.61-.773c-.263-.2-.57-.326-.892-.367.322-.041.629-.167.892-.367.263-.2.472-.465.61-.773a5.748 5.748 0 00.535-2.71v-6.36h-2.774v6.65a2.504 2.504 0 01-.401 1.66 2.043 2.043 0 01-.735.396c-.268.079-.548.1-.824.064h-1.062v-8.77h-2.784v20.42h2.784v-8.77zm22.335 5.89h-4.64v-5.89h4.64v-2.88h-4.64v-5.88h4.64v-2.89h-7.413v20.42h7.413v-2.88zm11.21-5.89h1.081a2.015 2.015 0 011.559.46c.323.484.466 1.074.402 1.66v6.65h2.774v-6.36a5.616 5.616 0 00-.546-2.71 2.163 2.163 0 00-.733-.808A2.045 2.045 0 00154 31.33a2.047 2.047 0 001.017-.332c.307-.2.559-.478.733-.808a5.616 5.616 0 00.546-2.71v-3.35a3.14 3.14 0 00-.167-1.186 3.024 3.024 0 00-.599-1.024 2.77 2.77 0 00-.949-.62 2.673 2.673 0 00-1.107-.18h-5.739v20.42h2.764l-.019-8.77zm0-8.76h2.764c.182 0 .278.07.278.22v3.54a2.505 2.505 0 01-.402 1.66 2.072 2.072 0 01-.735.394 2.01 2.01 0 01-.824.066h-1.081v-5.88z" fill="#EC1E82"/><path d="M174.087 0H1.913C1.406 0 .919.21.56.586.202.96 0 1.47 0 2v60c0 .53.202 1.04.56 1.414.36.375.846.586 1.353.586h172.174c.507 0 .994-.21 1.353-.586A2.05 2.05 0 00176 62V2c0-.53-.202-1.04-.56-1.414A1.873 1.873 0 00174.087 0zM57.391 60H3.826V4h53.565v56zm114.783 0H61.217V4h110.957v56z" fill="#EC1E82"/><path d="M12.435 19.81l12.817 13.26L25.233 51h3.568V31.24L14.93 17.21l-2.496 2.6zm36.348 0l-2.497-2.6-13.88 14.03V51h3.578l-.019-17.93 12.818-13.26zM41.188 12L30.599 22.78 20.02 12l-2.525 2.6 13.104 13.35L43.713 14.6 41.188 12z" fill="#EC1E82"/></svg>