<svg width="80" height="80" fill="none" xmlns="http://www.w3.org/2000/svg"><path d="M35.263 63.095l-1.15-1.49-1.663.896a6.423 6.423 0 01-5.636.227 6.439 6.439 0 01-2.309-1.744 6.314 6.314 0 01-1.295-2.565l-.437-1.805-1.89.151h-.507a6.446 6.446 0 01-2.592-.547 6.357 6.357 0 01-2.14-1.541 6.35 6.35 0 01-1.385-2.5l-5.636 5.58a2.081 2.081 0 00-.067 2.907c.244.266.553.466.897.581l10.316 3.408 3.437 10.24c.115.339.315.644.582.886a2.15 2.15 0 001.43.553c.56.008 1.1-.203 1.503-.586l10.858-10.762a6.343 6.343 0 01-2.316-1.89zm36.75-5.325l-5.635-5.58a6.35 6.35 0 01-1.385 2.499 6.356 6.356 0 01-2.14 1.54 6.444 6.444 0 01-2.593.548h-.51l-1.887-.151-.437 1.83a6.339 6.339 0 01-1.298 2.56 6.466 6.466 0 01-2.305 1.744 6.399 6.399 0 01-5.636-.227l-1.664-.897-1.15 1.49a6.344 6.344 0 01-2.316 1.858l10.859 10.762a2.116 2.116 0 001.498.618 2.148 2.148 0 001.435-.553 2.1 2.1 0 00.581-.886l3.437-10.236 10.316-3.412c.343-.118.65-.32.892-.586a2.08 2.08 0 00.463-1.992 2.106 2.106 0 00-.545-.91l.02-.02zM37.47 29.036a1.323 1.323 0 00-.774.235 1.29 1.29 0 00-.485.638c-.27.582-.405 1.658-.405 3.228 0 1.595.146 2.67.43 3.253.092.251.26.47.481.625.221.156.485.242.757.248a1.317 1.317 0 00.931-.37c.304-.327.505-.733.58-1.169.146-.823.209-1.66.185-2.495 0-1.654-.141-2.79-.429-3.34a1.347 1.347 0 00-.502-.62 1.38 1.38 0 00-.769-.233zm19.357 5.887a.734.734 0 00-.648.315c-.268.465-.39.998-.348 1.53-.042.535.08 1.07.348 1.535a.73.73 0 00.648.303.768.768 0 00.656-.303c.267-.466.387-1 .344-1.534a2.687 2.687 0 00-.344-1.539.759.759 0 00-.656-.307zm-9.126-6.74a.775.775 0 00-.66.307 2.652 2.652 0 00-.344 1.53 2.656 2.656 0 00.344 1.535.759.759 0 00.66.315.746.746 0 00.648-.315c.267-.466.387-1 .344-1.535a2.668 2.668 0 00-.344-1.53.739.739 0 00-.648-.307z" fill="#fff"/><path d="M69.15 29.47c-.032-.32-.14-.63-.316-.903a2.131 2.131 0 00-.698-.675l-4.777-2.816 2.145-5.018a2.053 2.053 0 00-.79-2.534 2.195 2.195 0 00-.914-.333l-5.533-.703-.139-5.433a2.034 2.034 0 00-.242-.916 2.11 2.11 0 00-.636-.719 2.2 2.2 0 00-1.871-.312l-5.35 1.552-2.382-4.908a2.074 2.074 0 00-.603-.74 2.166 2.166 0 00-.882-.405 2.206 2.206 0 00-.976.018 2.16 2.16 0 00-.865.436L40.067 8.6l-4.238-3.554a2.16 2.16 0 00-.865-.436 2.205 2.205 0 00-.976-.018 2.166 2.166 0 00-.882.404 2.074 2.074 0 00-.603.741L30.12 10.66l-5.349-1.552a2.2 2.2 0 00-1.871.312c-.267.19-.485.435-.638.719a2.036 2.036 0 00-.245.916l-.135 5.433-5.516.703c-.328.042-.64.156-.915.333a2.106 2.106 0 00-.667.69 2.064 2.064 0 00-.122 1.844l2.112 5.018-4.748 2.831a2.136 2.136 0 00-.695.669 2.032 2.032 0 00-.198 1.836c.114.3.298.571.537.792l4.054 3.736-3.167 4.473a2.025 2.025 0 00-.28 1.83c.102.305.274.584.505.814.23.23.513.407.825.515l5.264 1.785-1.026 5.342c-.06.315-.045.64.044.948a2.093 2.093 0 001.27 1.374c.307.119.637.167.966.142l5.562-.434 1.303 5.295c.074.31.222.6.43.847.21.246.475.442.776.573a2.202 2.202 0 001.9-.07l4.903-2.602 3.392 4.316c.199.255.456.462.751.604a2.19 2.19 0 001.902 0 2.11 2.11 0 00.751-.604l3.388-4.316 4.904 2.602a2.189 2.189 0 002.676-.502c.21-.247.356-.537.43-.848l1.294-5.283 5.562.434a2.2 2.2 0 00.965-.142 2.09 2.09 0 001.271-1.374c.09-.309.104-.633.044-.948l-1.042-5.354 5.268-1.805c.312-.108.594-.284.825-.515.23-.23.403-.509.505-.814a2.025 2.025 0 00-.28-1.83l-3.167-4.473 4.054-3.735c.236-.22.418-.488.531-.784.115-.297.157-.615.127-.93zm-39.177 7.637a4.066 4.066 0 01-1.757 1.686 6.252 6.252 0 01-2.86.585 8.87 8.87 0 01-2.17-.233 4.5 4.5 0 01-1.533-.691 4.173 4.173 0 01-1.025-1.043 5.222 5.222 0 01-.654-1.449l3.592-.395c.038.484.248.939.596 1.288a1.644 1.644 0 001.14.434c.234.004.465-.042.677-.136.212-.093.4-.232.55-.405.357-.467.53-1.043.486-1.623a2.278 2.278 0 00-.49-1.619 1.687 1.687 0 00-.592-.396 1.734 1.734 0 00-.708-.12 2.166 2.166 0 00-.993.244 2.76 2.76 0 00-.785.643l-3.028-.422 1.124-6.641h8.434v2.736h-5.72l-.307 1.852c.377-.17.771-.303 1.177-.395a4.971 4.971 0 011.144-.134 4.418 4.418 0 011.674.255 4.31 4.31 0 011.44.862c.392.365.701.805.907 1.292.206.486.305 1.01.29 1.535 0 .801-.209 1.589-.609 2.29zm11.32.711c-.785 1.037-2.136 1.564-4.054 1.58a5.855 5.855 0 01-2.611-.498 4.165 4.165 0 01-1.635-1.46 5.414 5.414 0 01-.72-1.865 12.345 12.345 0 01-.257-2.617c0-2.349.438-3.992 1.312-4.932.875-.94 2.21-1.42 4.005-1.438a6.167 6.167 0 012.12.308c.502.174.962.442 1.353.79.326.304.602.654.818 1.039.218.407.38.84.486 1.287.24.943.359 1.911.355 2.882.003 2.243-.388 3.884-1.172 4.924zm4.348-5.133a2.697 2.697 0 01-1.186-1.185 3.67 3.67 0 010-3.28 2.657 2.657 0 011.186-1.185 4.067 4.067 0 011.892-.447 3.56 3.56 0 011.357.195c.435.152.833.386 1.172.69.313.313.556.685.715 1.092.16.408.23.842.209 1.277.021.435-.05.87-.209 1.277-.159.407-.402.78-.715 1.092a3.45 3.45 0 01-1.171.692 3.543 3.543 0 01-1.358.193 4.07 4.07 0 01-1.892-.415v.004zm3.739 7.107h-1.823l7.355-13.2h1.843l-7.376 13.2zm9.893-.9c-.34.306-.74.542-1.175.695a3.55 3.55 0 01-1.363.194 3.997 3.997 0 01-1.884-.423 2.686 2.686 0 01-1.189-1.184 3.696 3.696 0 010-3.278 2.686 2.686 0 011.19-1.184 3.997 3.997 0 011.883-.423 3.55 3.55 0 011.36.187c.437.15.837.383 1.178.686.597.654.927 1.496.927 2.369 0 .872-.33 1.715-.927 2.369v-.008z" fill="#fff"/></svg>