<?xml version="1.0" encoding="utf-8"?><svg viewBox="0 0 68 29" xmlns="http://www.w3.org/2000/svg" xmlns:xlink="http://www.w3.org/1999/xlink"><style>:root>svg{display:none}:root>svg:target{display:block}</style><svg xmlns:svgjs="http://svgjs.com/svgjs" viewBox="0 0.137 11 7.725" fill="#fff" id="arrow-down" xmlns="http://www.w3.org/2000/svg"><svg width="11" height="8" viewBox="1.989 1.991 10.004 7.026"><path paint-order="stroke fill markers" fill-rule="evenodd" d="M11.993 2.927L7.761 8.08l-.77.937-.77-.937L1.99 2.927l.77-.936 4.23 5.151 4.233-5.151.77.936z"/></svg></svg><svg xmlns:svgjs="http://svgjs.com/svgjs" viewBox="0 0.137 11 7.725" id="arrow-down-mob" xmlns="http://www.w3.org/2000/svg"><svg width="11" height="8" viewBox="1.989 1.991 10.004 7.026"><path paint-order="stroke fill markers" fill-rule="evenodd" d="M11.993 2.927L7.761 8.08l-.77.937-.77-.937L1.99 2.927l.77-.936 4.23 5.151 4.233-5.151.77.936z"/></svg></svg><svg viewBox="0 0 512 512" id="arrow-right" xmlns="http://www.w3.org/2000/svg"><path d="M508.25 247.875L303.042 73.448A39.81 39.81 0 00277.313 64h-2.917c-21.917 0-39.729 17.823-39.729 39.719a39.63 39.63 0 0014.292 30.521l94.917 79.094H42.667C19.146 213.333 0 232.469 0 256s19.146 42.667 42.667 42.667h301.208l-94.917 79.094a39.634 39.634 0 00-14.292 30.521c0 21.896 17.813 39.719 39.729 39.719h2.917a39.86 39.86 0 0025.75-9.458L508.25 264.125c2.375-2.021 3.75-5 3.75-8.125s-1.375-6.104-3.75-8.125z" data-original="#000000" class="cactive-path" data-old_color="#000000" fill="#FFD200"/></svg><svg viewBox="0 0 384 384" id="burger" xmlns="http://www.w3.org/2000/svg"><path data-original="#000000" class="dactive-path" data-old_color="#000000" fill="#FFF" d="M0 277.333h384V320H0zM0 170.667h384v42.667H0zM0 64h384v42.667H0z"/></svg><svg viewBox="0 0 386.667 386.667" id="close" xmlns="http://www.w3.org/2000/svg"><path d="M386.667 45.564L341.103 0l-147.77 147.769L45.564 0 0 45.564l147.769 147.769L0 341.103l45.564 45.564 147.769-147.769 147.769 147.769 45.564-45.564-147.768-147.77z" data-original="#000000" class="eactive-path" data-old_color="#000000" fill="#FFF"/></svg><svg xmlns:svgjs="http://svgjs.com/svgjs" viewBox="0 0.125 25 18.75" fill="#ffd200" id="language" xmlns="http://www.w3.org/2000/svg"><svg width="25" height="19" viewBox="2 2 24 18"><path paint-order="stroke fill markers" fill-rule="evenodd" d="M4 2h20a2 2 0 012 2v14a2 2 0 01-2 2H4a2 2 0 01-2-2V4a2 2 0 012-2z"/></svg></svg><svg xmlns:svgjs="http://svgjs.com/svgjs" viewBox="0 0.295 68 28.41" fill="#ffd981" id="logo" xmlns="http://www.w3.org/2000/svg"><svg width="68" height="29" viewBox="1.995 1.003 67 27.992"><path paint-order="stroke fill markers" fill-rule="evenodd" d="M6.015 19.558V1.003h-4.02V23.02H15.97v-3.463H6.015zm26.21-8.436c-.394-1.07-.941-1.986-1.643-2.748a7.132 7.132 0 00-2.536-1.763c-.99-.414-2.07-.62-3.239-.62-1.17 0-2.244.206-3.222.62-.979.412-1.824 1-2.537 1.763-.712.762-1.265 1.679-1.659 2.748-.393 1.07-.59 2.261-.59 3.575 0 1.313.197 2.51.59 3.59.394 1.08.942 2.002 1.644 2.764a7.344 7.344 0 002.52 1.78c.978.423 2.063.635 3.254.635 1.191 0 2.282-.212 3.27-.636a7.308 7.308 0 002.537-1.779c.702-.762 1.244-1.684 1.627-2.764.383-1.08.574-2.277.574-3.59 0-1.314-.196-2.505-.59-3.575zm-4.435 7.546c-.712.975-1.707 1.462-2.983 1.462s-2.27-.487-2.983-1.462c-.713-.974-1.069-2.298-1.069-3.971 0-1.652.356-2.96 1.07-3.924.712-.964 1.706-1.446 2.982-1.446 1.276 0 2.27.482 2.983 1.446.713.964 1.07 2.272 1.07 3.924 0 1.673-.357 2.997-1.07 3.971zm12.363-8.022c.745-.922 1.819-1.383 3.223-1.383.616 0 1.127.027 1.531.08.404.053.744.11 1.021.175v8.61c-.34.234-.782.435-1.324.604a5.788 5.788 0 01-1.739.254c-1.127 0-2.047-.376-2.76-1.128-.712-.752-1.068-1.943-1.068-3.575 0-1.503.371-2.716 1.116-3.637zm9.635-3.702a31.611 31.611 0 00-2.871-.604 21.439 21.439 0 00-3.573-.286c-1.298 0-2.457.202-3.478.604-1.02.403-1.888.964-2.6 1.684-.713.72-1.255 1.589-1.627 2.605-.373 1.017-.559 2.13-.559 3.336 0 1.293.176 2.431.527 3.416.35.985.84 1.806 1.467 2.463a6.115 6.115 0 002.266 1.493c.882.34 1.855.508 2.919.508.808 0 1.526-.095 2.153-.285.628-.191 1.133-.382 1.516-.572v.635c0 1.25-.33 2.192-.99 2.828-.659.635-1.765.953-3.317.953a13.82 13.82 0 01-2.728-.254c-.84-.17-1.59-.392-2.25-.667l-.701 3.272c.786.275 1.664.498 2.632.667.968.17 1.962.254 2.983.254 2.786 0 4.855-.614 6.205-1.842 1.351-1.23 2.026-3.167 2.026-5.815V6.944zm18.617 4.178c-.394-1.07-.941-1.986-1.643-2.748a7.132 7.132 0 00-2.537-1.763c-.989-.414-2.068-.62-3.238-.62s-2.244.206-3.222.62c-.979.412-1.824 1-2.537 1.763-.713.762-1.266 1.679-1.659 2.748-.394 1.07-.59 2.261-.59 3.575 0 1.313.196 2.51.59 3.59.393 1.08.941 2.002 1.643 2.764a7.344 7.344 0 002.52 1.78c.979.423 2.063.635 3.255.635 1.19 0 2.281-.212 3.27-.636a7.308 7.308 0 002.537-1.779c.702-.762 1.244-1.684 1.627-2.764.383-1.08.574-2.277.574-3.59 0-1.314-.197-2.505-.59-3.575zm-4.435 7.546c-.713.975-1.707 1.462-2.983 1.462s-2.27-.487-2.983-1.462c-.713-.974-1.069-2.298-1.069-3.971 0-1.652.356-2.96 1.069-3.924.712-.964 1.707-1.446 2.983-1.446s2.27.482 2.983 1.446c.712.964 1.069 2.272 1.069 3.924 0 1.673-.357 2.997-1.069 3.971z"/></svg></svg></svg>